<svg id="Layer_1" data-name="Layer 1" xmlns="http://www.w3.org/2000/svg" viewBox="0 0 67.18 45.34"><defs><style>.cls-1{fill:#0d1f32;stroke:#0d1f32;stroke-miterlimit:10;}.cls-2{fill:#f26522;}</style></defs><path class="cls-1" d="M37.83,23.63c-2.35,6.74-4.66,13.38-7,20.25L23.6,25.08h-.18c-2.08,6.09-4.15,12.19-6.31,18.51L.73.52H2.19c1.34,0,2.69,0,4,0a1.12,1.12,0,0,1,1.26.9q5.17,14,10.38,27.93c.07.18.16.36.32.71.19-.6.33-1,.46-1.48.83-2.66,1.69-5.31,2.47-8A2.88,2.88,0,0,0,21,18.9C18.89,13.13,16.7,7.38,14.52,1.62c-.13-.32-.24-.65-.41-1.11,2,0,4,0,5.89,0,.26,0,.62.47.74.8C22.88,7,25,12.58,27.11,18.2c1.42,3.74,2.89,7.46,4.34,11.19.11.28.24.55.45,1l5.86-17.25c.17.5.26.77.36,1.05a11,11,0,0,0,6.31,6.63c3.14,1.34,6.37,2.49,9.51,3.84A18.79,18.79,0,0,1,58.11,27a7.32,7.32,0,0,1-.54,11.88,2,2,0,0,1-1,.32c.23-.37.46-.74.68-1.12A3.76,3.76,0,0,0,57,33.35a8.71,8.71,0,0,0-3.91-2.78c-2.73-1-5.48-2-8.2-3a24.27,24.27,0,0,1-6.63-3.66Z"/><path class="cls-2" d="M37,35.22c1.17,0,2.18-.06,3.18,0a1.42,1.42,0,0,1,.88.73c3.56,6.45,13,6.62,17.53,3.4,2.89-2,4.61-5.78,4-9a7.82,7.82,0,0,0-3.39-5,29.19,29.19,0,0,0-4.87-2.61c-2.5-1.09-5.1-2-7.61-3.05a21,21,0,0,1-3.64-2.05,8.8,8.8,0,0,1-.42-14.19c4.94-3.79,10.39-4,16-1.68,4.25,1.77,6.36,5.29,7.62,9.62-.89,0-1.71,0-2.53,0-.15,0-.34-.2-.44-.36a4.78,4.78,0,0,1-.42-.81c-1.69-4-4.9-6.05-9.06-6.79a12.62,12.62,0,0,0-7,.61C44,5.3,42.57,8.48,43.89,11a6.19,6.19,0,0,0,3.26,2.85c2.27.94,4.57,1.79,6.85,2.72,2.11.86,4.26,1.64,6.28,2.68a12.71,12.71,0,0,1,2.94,20.53,17.27,17.27,0,0,1-21.65,1.39,13.56,13.56,0,0,1-3.93-4.49A15.73,15.73,0,0,1,37,35.22Z"/></svg>