<svg id="Layer_1" data-name="Layer 1" xmlns="http://www.w3.org/2000/svg" viewBox="0 0 67.76 61.64"><defs><style>.cls-1,.cls-3{fill:#0d1f32;}.cls-1{stroke:#0d1f32;stroke-miterlimit:10;}.cls-2{fill:#f26522;}.cls-3{font-size:13.41px;font-family:Arista2.0, "Arista 2.0";letter-spacing:0.04em;}.cls-4{letter-spacing:0.07em;}.cls-5,.cls-6{letter-spacing:0.05em;}.cls-6{fill:#f15b22;}</style></defs><path class="cls-1" d="M38.41,23.63l-7,20.25-7.18-18.8H24c-2.08,6.09-4.16,12.19-6.31,18.51C12.21,29.16,6.79,14.91,1.31.52H2.78c1.34,0,2.69,0,4,0a1.11,1.11,0,0,1,1.25.9q5.17,14,10.39,27.93c.07.18.16.36.31.71l.47-1.48c.83-2.66,1.68-5.31,2.46-8a2.88,2.88,0,0,0-.06-1.67C19.48,13.13,17.28,7.38,15.1,1.62,15,1.3,14.86,1,14.7.51c2,0,4,0,5.88,0,.27,0,.62.47.75.8C23.47,7,25.56,12.58,27.7,18.2c1.42,3.74,2.88,7.46,4.33,11.19.11.28.24.55.45,1,2-5.8,3.89-11.42,5.87-17.25.17.5.26.77.36,1.05A11,11,0,0,0,45,20.85c3.15,1.34,6.37,2.49,9.52,3.84A19.25,19.25,0,0,1,58.7,27c3.95,3.05,3.62,9.4-.54,11.88a2,2,0,0,1-1,.32c.22-.37.46-.74.68-1.12a3.77,3.77,0,0,0-.32-4.72,8.68,8.68,0,0,0-3.92-2.78c-2.73-1-5.47-2-8.2-3a24.57,24.57,0,0,1-6.63-3.66A4.5,4.5,0,0,0,38.41,23.63Z"/><path class="cls-2" d="M37.6,35.22c1.17,0,2.18-.06,3.18,0a1.47,1.47,0,0,1,.89.73c3.55,6.45,13,6.62,17.52,3.4,2.9-2,4.62-5.78,4-9a7.86,7.86,0,0,0-3.39-5,29.58,29.58,0,0,0-4.87-2.61c-2.51-1.09-5.11-2-7.62-3.05a20.9,20.9,0,0,1-3.63-2.05,8.8,8.8,0,0,1-.42-14.19c4.93-3.79,10.39-4,16-1.68,4.25,1.77,6.36,5.29,7.63,9.62-.89,0-1.71,0-2.53,0-.16,0-.34-.2-.45-.36a4.73,4.73,0,0,1-.41-.81c-1.7-4-4.9-6.05-9.07-6.79a12.59,12.59,0,0,0-7,.61c-2.94,1.18-4.31,4.36-3,6.87a6.27,6.27,0,0,0,3.26,2.85c2.27.94,4.58,1.79,6.85,2.72,2.11.86,4.27,1.64,6.29,2.68a12.72,12.72,0,0,1,2.94,20.53,17.28,17.28,0,0,1-21.66,1.39,13.79,13.79,0,0,1-3.93-4.49C38,36.26,37.85,35.81,37.6,35.22Z"/><text class="cls-3" transform="translate(0 58.38)">w<tspan class="cls-4" x="9.17" y="0">h</tspan><tspan class="cls-5" x="17.25" y="0">ole</tspan><tspan class="cls-6" x="37.3" y="0">salio</tspan></text></svg>